<svg xmlns="http://www.w3.org/2000/svg" xmlns:xlink="http://www.w3.org/1999/xlink" viewBox="0 0 163.22 155.41"><defs><style>.cls-1{fill:none;}.cls-2{fill:#2a78ff;}.cls-3{fill:url(#linear-gradient);}.cls-4{fill:#fff;}</style><linearGradient id="linear-gradient" x1="-17.34" y1="175.44" x2="-17.79" y2="175.93" gradientTransform="matrix(231.16, 0, 0, -210, 4138.01, 36978.03)" gradientUnits="userSpaceOnUse"><stop offset="0" stop-color="#2a78ff"/><stop offset="1" stop-color="#5293e2"/></linearGradient></defs><title>Asset 1</title><g id="Layer_2" data-name="Layer 2"><g id="Layer_1-2" data-name="Layer 1"><rect id="backgroundrect" class="cls-1" width="163.1" height="153.35"/><g id="svg_1" data-name="svg 1"><path id="svg_2" data-name="svg 2" class="cls-2" d="M152.33,121.49a2.79,2.79,0,0,1-2.81,3H13.34a2.79,2.79,0,0,1-2.81-3L20.29,5.86A2.8,2.8,0,0,1,23.1,3.32H139.35a2.81,2.81,0,0,1,2.82,2.53Z"/><path id="svg_3" data-name="svg 3" class="cls-3" d="M163.2,151.66a3.49,3.49,0,0,1-3.51,3.75H3.53A3.49,3.49,0,0,1,0,151.67L11.22,13.16A3.5,3.5,0,0,1,14.74,10H148a3.51,3.51,0,0,1,3.52,3.17Z"/></g><g id="Layer_1-2-2" data-name="Layer 1-2"><path class="cls-4" d="M104,33.64H59.25A26.69,26.69,0,0,0,32.56,60.33h0v44.72a26.68,26.68,0,0,0,26.69,26.68H104a26.68,26.68,0,0,0,26.68-26.68V60.33A26.68,26.68,0,0,0,104,33.64ZM58.65,90.38v23.77H47.37a2.72,2.72,0,0,1-2.71-2.72V61.08a9.85,9.85,0,0,1,9.84-9.85h37L85.68,62.87h-27V78.74h19L71.82,90.38Zm53,0H88.28v23.77H77a2.72,2.72,0,0,1-2.72-2.72V90.89l14-27.77V78.74H111.6Zm1.09-27.51H88.41l5.86-11.64h24.29Z"/></g></g></g></svg>